<?xml version="1.0" encoding="UTF-8" standalone="no"?>
<!DOCTYPE svg PUBLIC "-//W3C//DTD SVG 1.1//EN"
 "http://www.w3.org/Graphics/SVG/1.1/DTD/svg11.dtd">
<!-- Generated by graphviz version 2.43.0 (0)
 -->
<!-- Title: snakemake_dag Pages: 1 -->
<svg width="922pt" height="2020pt"
 viewBox="0.00 0.00 921.50 2020.00" xmlns="http://www.w3.org/2000/svg" xmlns:xlink="http://www.w3.org/1999/xlink">
<g id="graph0" class="graph" transform="scale(1 1) rotate(0) translate(4 2016)">
<title>snakemake_dag</title>
<polygon fill="white" stroke="transparent" points="-4,4 -4,-2016 917.5,-2016 917.5,4 -4,4"/>
<!-- 0 -->
<g id="node1" class="node">
<title>0</title>
<text text-anchor="start" x="736.5" y="-215.6" font-family="sans" font-weight="bold" font-size="18.00">all</text>
<text text-anchor="start" x="588" y="-191.8" font-family="sans" font-size="10.00"> </text>
<text text-anchor="start" x="591" y="-191.8" font-family="sans" font-weight="bold" font-size="14.00">↪ input</text>
<text text-anchor="start" x="664" y="-191.8" font-family="sans" font-size="10.00"> </text>
<text text-anchor="start" x="588" y="-172" font-family="monospace" font-size="10.00">data/final/master_computational_papers.jsonl</text>
<text text-anchor="start" x="588" y="-154" font-family="monospace" font-size="10.00">data/final/master_non_computational_papers.jsonl</text>
<text text-anchor="start" x="588" y="-136" font-family="monospace" font-size="10.00">data/intermediate/computational_papers.jsonl</text>
<text text-anchor="start" x="588" y="-118" font-family="monospace" font-size="10.00">data/intermediate/extracted_sections_log.jsonl</text>
<text text-anchor="start" x="588" y="-100" font-family="monospace" font-size="10.00">data/intermediate/llm_broad_annotated_papers.jsonl</text>
<text text-anchor="start" x="588" y="-82" font-family="monospace" font-size="10.00">data/intermediate/llm_detailed_annotated_papers.jsonl</text>
<text text-anchor="start" x="588" y="-64" font-family="monospace" font-size="10.00">data/intermediate/non_computational_papers.jsonl</text>
<text text-anchor="start" x="588" y="-46" font-family="monospace" font-size="10.00">data/intermediate/papers_filtered_scored.jsonl</text>
<text text-anchor="start" x="588" y="-28" font-family="monospace" font-size="10.00">data/manual_curation/papers_to_delete.csv</text>
<text text-anchor="start" x="902" y="-10" font-family="sans" font-size="10.00"> &#160;</text>
<polygon fill="#d95757" stroke="#d95757" points="582,-206 582,-206 914,-206 914,-206 582,-206"/>
<polygon fill="#d95757" stroke="#d95757" points="582,-22 582,-22 914,-22 914,-22 582,-22"/>
<polygon fill="none" stroke="#d95757" stroke-width="2" points="581.5,-1 581.5,-235 912.5,-235 912.5,-1 581.5,-1"/>
</g>
<!-- 1 -->
<g id="node2" class="node">
<title>1</title>
<text text-anchor="start" x="191" y="-1391.6" font-family="sans" font-weight="bold" font-size="18.00">filter_and_score_papers</text>
<text text-anchor="start" x="133" y="-1367.8" font-family="sans" font-size="10.00"> </text>
<text text-anchor="start" x="136" y="-1367.8" font-family="sans" font-weight="bold" font-size="14.00">↪ input</text>
<text text-anchor="start" x="209" y="-1367.8" font-family="sans" font-size="10.00"> </text>
<text text-anchor="start" x="133" y="-1348" font-family="monospace" font-size="10.00">data/intermediate/papers_with_extracted_concepts.jsonl</text>
<text text-anchor="start" x="385" y="-1327.8" font-family="sans" font-size="10.00"> </text>
<text text-anchor="start" x="388" y="-1327.8" font-family="sans" font-weight="bold" font-size="14.00">output →</text>
<text text-anchor="start" x="455" y="-1327.8" font-family="sans" font-size="10.00"> </text>
<text text-anchor="start" x="133" y="-1308" font-family="monospace" font-size="10.00">data/intermediate/papers_filtered_scored.jsonl</text>
<polygon fill="#93d957" stroke="#93d957" points="127,-1382 127,-1382 465,-1382 465,-1382 127,-1382"/>
<polygon fill="#93d957" stroke="#93d957" points="127,-1342 127,-1342 465,-1342 465,-1342 127,-1342"/>
<polygon fill="none" stroke="#93d957" stroke-width="2" points="126.5,-1299 126.5,-1411 463.5,-1411 463.5,-1299 126.5,-1299"/>
</g>
<!-- 1&#45;&gt;0 -->
<g id="edge4" class="edge">
<title>1&#45;&gt;0</title>
<path fill="none" stroke="grey" stroke-width="2" d="M186.83,-1297.76C102.64,-1245.37 0,-1158.61 0,-1047 0,-1047 0,-1047 0,-550 0,-287.89 349.31,-182.71 570.2,-142.41"/>
<polygon fill="grey" stroke="grey" stroke-width="2" points="571.06,-145.81 580.29,-140.59 569.83,-138.92 571.06,-145.81"/>
</g>
<!-- 6 -->
<g id="node7" class="node">
<title>6</title>
<text text-anchor="start" x="531" y="-1241.6" font-family="sans" font-weight="bold" font-size="18.00">extract_full_text_sections</text>
<text text-anchor="start" x="505" y="-1217.8" font-family="sans" font-size="10.00"> </text>
<text text-anchor="start" x="508" y="-1217.8" font-family="sans" font-weight="bold" font-size="14.00">↪ input</text>
<text text-anchor="start" x="581" y="-1217.8" font-family="sans" font-size="10.00"> </text>
<text text-anchor="start" x="505" y="-1198" font-family="monospace" font-size="10.00">data/intermediate/papers_filtered_scored.jsonl</text>
<text text-anchor="start" x="709" y="-1177.8" font-family="sans" font-size="10.00"> </text>
<text text-anchor="start" x="712" y="-1177.8" font-family="sans" font-weight="bold" font-size="14.00">output →</text>
<text text-anchor="start" x="779" y="-1177.8" font-family="sans" font-size="10.00"> </text>
<text text-anchor="start" x="505" y="-1158" font-family="monospace" font-size="10.00">data/intermediate/extracted_sections_log.jsonl</text>
<polygon fill="#bbd957" stroke="#bbd957" points="499,-1232 499,-1232 789,-1232 789,-1232 499,-1232"/>
<polygon fill="#bbd957" stroke="#bbd957" points="499,-1192 499,-1192 789,-1192 789,-1192 499,-1192"/>
<polygon fill="none" stroke="#bbd957" stroke-width="2" points="498.5,-1149 498.5,-1261 787.5,-1261 787.5,-1149 498.5,-1149"/>
</g>
<!-- 1&#45;&gt;6 -->
<g id="edge12" class="edge">
<title>1&#45;&gt;6</title>
<path fill="none" stroke="grey" stroke-width="2" d="M427.06,-1297.84C451.53,-1287.43 477.17,-1276.53 501.89,-1266.01"/>
<polygon fill="grey" stroke="grey" stroke-width="2" points="503.49,-1269.14 511.32,-1262 500.75,-1262.7 503.49,-1269.14"/>
</g>
<!-- 2 -->
<g id="node3" class="node">
<title>2</title>
<text text-anchor="start" x="220" y="-1541.6" font-family="sans" font-weight="bold" font-size="18.00">extract_concepts</text>
<text text-anchor="start" x="133" y="-1517.8" font-family="sans" font-size="10.00"> </text>
<text text-anchor="start" x="136" y="-1517.8" font-family="sans" font-weight="bold" font-size="14.00">↪ input</text>
<text text-anchor="start" x="209" y="-1517.8" font-family="sans" font-size="10.00"> </text>
<text text-anchor="start" x="133" y="-1498" font-family="monospace" font-size="10.00">data/intermediate/cleaned_papers.jsonl</text>
<text text-anchor="start" x="385" y="-1477.8" font-family="sans" font-size="10.00"> </text>
<text text-anchor="start" x="388" y="-1477.8" font-family="sans" font-weight="bold" font-size="14.00">output →</text>
<text text-anchor="start" x="455" y="-1477.8" font-family="sans" font-size="10.00"> </text>
<text text-anchor="start" x="133" y="-1458" font-family="monospace" font-size="10.00">data/intermediate/papers_with_extracted_concepts.jsonl</text>
<polygon fill="#d9cf57" stroke="#d9cf57" points="127,-1532 127,-1532 465,-1532 465,-1532 127,-1532"/>
<polygon fill="#d9cf57" stroke="#d9cf57" points="127,-1492 127,-1492 465,-1492 465,-1492 127,-1492"/>
<polygon fill="none" stroke="#d9cf57" stroke-width="2" points="126.5,-1449 126.5,-1561 463.5,-1561 463.5,-1449 126.5,-1449"/>
</g>
<!-- 2&#45;&gt;1 -->
<g id="edge8" class="edge">
<title>2&#45;&gt;1</title>
<path fill="none" stroke="grey" stroke-width="2" d="M295,-1447.63C295,-1439.38 295,-1430.82 295,-1422.4"/>
<polygon fill="grey" stroke="grey" stroke-width="2" points="298.5,-1422.22 295,-1412.22 291.5,-1422.22 298.5,-1422.22"/>
</g>
<!-- 3 -->
<g id="node4" class="node">
<title>3</title>
<text text-anchor="start" x="209.5" y="-1691.6" font-family="sans" font-weight="bold" font-size="18.00">clean_scraped_data</text>
<text text-anchor="start" x="181" y="-1667.8" font-family="sans" font-size="10.00"> </text>
<text text-anchor="start" x="184" y="-1667.8" font-family="sans" font-weight="bold" font-size="14.00">↪ input</text>
<text text-anchor="start" x="257" y="-1667.8" font-family="sans" font-size="10.00"> </text>
<text text-anchor="start" x="181" y="-1648" font-family="monospace" font-size="10.00">data/raw/scraped_pubmed_articles.jsonl</text>
<text text-anchor="start" x="337" y="-1627.8" font-family="sans" font-size="10.00"> </text>
<text text-anchor="start" x="340" y="-1627.8" font-family="sans" font-weight="bold" font-size="14.00">output →</text>
<text text-anchor="start" x="407" y="-1627.8" font-family="sans" font-size="10.00"> </text>
<text text-anchor="start" x="181" y="-1608" font-family="monospace" font-size="10.00">data/intermediate/cleaned_papers.jsonl</text>
<polygon fill="#d97f57" stroke="#d97f57" points="175,-1682 175,-1682 417,-1682 417,-1682 175,-1682"/>
<polygon fill="#d97f57" stroke="#d97f57" points="175,-1642 175,-1642 417,-1642 417,-1642 175,-1642"/>
<polygon fill="none" stroke="#d97f57" stroke-width="2" points="174.5,-1599 174.5,-1711 415.5,-1711 415.5,-1599 174.5,-1599"/>
</g>
<!-- 3&#45;&gt;2 -->
<g id="edge9" class="edge">
<title>3&#45;&gt;2</title>
<path fill="none" stroke="grey" stroke-width="2" d="M295,-1597.63C295,-1589.38 295,-1580.82 295,-1572.4"/>
<polygon fill="grey" stroke="grey" stroke-width="2" points="298.5,-1572.22 295,-1562.22 291.5,-1572.22 298.5,-1572.22"/>
</g>
<!-- 4 -->
<g id="node5" class="node">
<title>4</title>
<text text-anchor="start" x="225.5" y="-1841.6" font-family="sans" font-weight="bold" font-size="18.00">scrape_pubmed</text>
<text text-anchor="start" x="163" y="-1817.8" font-family="sans" font-size="10.00"> </text>
<text text-anchor="start" x="166" y="-1817.8" font-family="sans" font-weight="bold" font-size="14.00">↪ input</text>
<text text-anchor="start" x="239" y="-1817.8" font-family="sans" font-size="10.00"> </text>
<text text-anchor="start" x="163" y="-1798" font-family="monospace" font-size="10.00">data/inputs/paper_classification_cleaned.csv</text>
<text text-anchor="start" x="355" y="-1777.8" font-family="sans" font-size="10.00"> </text>
<text text-anchor="start" x="358" y="-1777.8" font-family="sans" font-weight="bold" font-size="14.00">output →</text>
<text text-anchor="start" x="425" y="-1777.8" font-family="sans" font-size="10.00"> </text>
<text text-anchor="start" x="163" y="-1758" font-family="monospace" font-size="10.00">data/raw/scraped_pubmed_articles.jsonl</text>
<polygon fill="#577fd9" stroke="#577fd9" points="157,-1832 157,-1832 435,-1832 435,-1832 157,-1832"/>
<polygon fill="#577fd9" stroke="#577fd9" points="157,-1792 157,-1792 435,-1792 435,-1792 157,-1792"/>
<polygon fill="none" stroke="#577fd9" stroke-width="2" points="156.5,-1749 156.5,-1861 433.5,-1861 433.5,-1749 156.5,-1749"/>
</g>
<!-- 4&#45;&gt;3 -->
<g id="edge10" class="edge">
<title>4&#45;&gt;3</title>
<path fill="none" stroke="grey" stroke-width="2" d="M295,-1747.63C295,-1739.38 295,-1730.82 295,-1722.4"/>
<polygon fill="grey" stroke="grey" stroke-width="2" points="298.5,-1722.22 295,-1712.22 291.5,-1722.22 298.5,-1722.22"/>
</g>
<!-- 5 -->
<g id="node6" class="node">
<title>5</title>
<text text-anchor="start" x="220.5" y="-1991.6" font-family="sans" font-weight="bold" font-size="18.00">preprocess_excel</text>
<text text-anchor="start" x="163" y="-1967.8" font-family="sans" font-size="10.00"> </text>
<text text-anchor="start" x="166" y="-1967.8" font-family="sans" font-weight="bold" font-size="14.00">↪ input</text>
<text text-anchor="start" x="239" y="-1967.8" font-family="sans" font-size="10.00"> </text>
<text text-anchor="start" x="163" y="-1948" font-family="monospace" font-size="10.00">data/inputs/paper_classification.xlsx</text>
<text text-anchor="start" x="355" y="-1927.8" font-family="sans" font-size="10.00"> </text>
<text text-anchor="start" x="358" y="-1927.8" font-family="sans" font-weight="bold" font-size="14.00">output →</text>
<text text-anchor="start" x="425" y="-1927.8" font-family="sans" font-size="10.00"> </text>
<text text-anchor="start" x="163" y="-1908" font-family="monospace" font-size="10.00">data/inputs/paper_classification_cleaned.csv</text>
<polygon fill="#57cfd9" stroke="#57cfd9" points="157,-1982 157,-1982 435,-1982 435,-1982 157,-1982"/>
<polygon fill="#57cfd9" stroke="#57cfd9" points="157,-1942 157,-1942 435,-1942 435,-1942 157,-1942"/>
<polygon fill="none" stroke="#57cfd9" stroke-width="2" points="156.5,-1899 156.5,-2011 433.5,-2011 433.5,-1899 156.5,-1899"/>
</g>
<!-- 5&#45;&gt;4 -->
<g id="edge11" class="edge">
<title>5&#45;&gt;4</title>
<path fill="none" stroke="grey" stroke-width="2" d="M295,-1897.63C295,-1889.38 295,-1880.82 295,-1872.4"/>
<polygon fill="grey" stroke="grey" stroke-width="2" points="298.5,-1872.22 295,-1862.22 291.5,-1872.22 298.5,-1872.22"/>
</g>
<!-- 6&#45;&gt;0 -->
<g id="edge2" class="edge">
<title>6&#45;&gt;0</title>
<path fill="none" stroke="grey" stroke-width="2" d="M788.43,-1147.72C802.38,-1137.58 815.02,-1125.75 825,-1112 886.57,-1027.21 861,-983.78 861,-879 861,-879 861,-879 861,-550 861,-425.04 855.32,-391.56 819,-272 816.37,-263.34 813.33,-254.54 810.01,-245.77"/>
<polygon fill="grey" stroke="grey" stroke-width="2" points="813.2,-244.31 806.31,-236.26 806.68,-246.85 813.2,-244.31"/>
</g>
<!-- 7 -->
<g id="node8" class="node">
<title>7</title>
<text text-anchor="start" x="563" y="-1091.6" font-family="sans" font-weight="bold" font-size="18.00">llm_broad_classify</text>
<text text-anchor="start" x="478" y="-1067.8" font-family="sans" font-size="10.00"> </text>
<text text-anchor="start" x="481" y="-1067.8" font-family="sans" font-weight="bold" font-size="14.00">↪ input</text>
<text text-anchor="start" x="554" y="-1067.8" font-family="sans" font-size="10.00"> </text>
<text text-anchor="start" x="478" y="-1048" font-family="monospace" font-size="10.00">config/llm_schemas/llm_broad_classification_schema.json</text>
<text text-anchor="start" x="478" y="-1030" font-family="monospace" font-size="10.00">data/intermediate/extracted_sections_log.jsonl</text>
<text text-anchor="start" x="736" y="-1009.8" font-family="sans" font-size="10.00"> </text>
<text text-anchor="start" x="739" y="-1009.8" font-family="sans" font-weight="bold" font-size="14.00">output →</text>
<text text-anchor="start" x="806" y="-1009.8" font-family="sans" font-size="10.00"> </text>
<text text-anchor="start" x="478" y="-990" font-family="monospace" font-size="10.00">data/intermediate/llm_broad_annotated_papers.jsonl</text>
<polygon fill="#57d993" stroke="#57d993" points="472,-1082 472,-1082 816,-1082 816,-1082 472,-1082"/>
<polygon fill="#57d993" stroke="#57d993" points="472,-1024 472,-1024 816,-1024 816,-1024 472,-1024"/>
<polygon fill="none" stroke="#57d993" stroke-width="2" points="471.5,-981 471.5,-1111 814.5,-1111 814.5,-981 471.5,-981"/>
</g>
<!-- 6&#45;&gt;7 -->
<g id="edge13" class="edge">
<title>6&#45;&gt;7</title>
<path fill="none" stroke="grey" stroke-width="2" d="M643,-1147.76C643,-1139.48 643,-1130.83 643,-1122.24"/>
<polygon fill="grey" stroke="grey" stroke-width="2" points="646.5,-1122.2 643,-1112.2 639.5,-1122.2 646.5,-1122.2"/>
</g>
<!-- 7&#45;&gt;0 -->
<g id="edge1" class="edge">
<title>7&#45;&gt;0</title>
<path fill="none" stroke="grey" stroke-width="2" d="M744.61,-979.87C756.17,-969.05 766.74,-957.04 775,-944 829.46,-857.97 823,-821.82 823,-720 823,-720 823,-720 823,-550 823,-425.68 816.52,-393.88 792,-272 790.29,-263.52 788.33,-254.83 786.21,-246.11"/>
<polygon fill="grey" stroke="grey" stroke-width="2" points="789.57,-245.11 783.74,-236.26 782.77,-246.81 789.57,-245.11"/>
</g>
<!-- 8 -->
<g id="node9" class="node">
<title>8</title>
<text text-anchor="start" x="459" y="-923.6" font-family="sans" font-weight="bold" font-size="18.00">score_and_split_broad_llm_output</text>
<text text-anchor="start" x="458" y="-899.8" font-family="sans" font-size="10.00"> </text>
<text text-anchor="start" x="461" y="-899.8" font-family="sans" font-weight="bold" font-size="14.00">↪ input</text>
<text text-anchor="start" x="534" y="-899.8" font-family="sans" font-size="10.00"> </text>
<text text-anchor="start" x="458" y="-880" font-family="monospace" font-size="10.00">data/intermediate/llm_broad_annotated_papers.jsonl</text>
<text text-anchor="start" x="686" y="-859.8" font-family="sans" font-size="10.00"> </text>
<text text-anchor="start" x="689" y="-859.8" font-family="sans" font-weight="bold" font-size="14.00">output →</text>
<text text-anchor="start" x="756" y="-859.8" font-family="sans" font-size="10.00"> </text>
<text text-anchor="start" x="458" y="-840" font-family="monospace" font-size="10.00">data/intermediate/computational_papers.jsonl</text>
<text text-anchor="start" x="458" y="-822" font-family="monospace" font-size="10.00">data/intermediate/non_computational_papers.jsonl</text>
<polygon fill="#57a7d9" stroke="#57a7d9" points="452,-914 452,-914 766,-914 766,-914 452,-914"/>
<polygon fill="#57a7d9" stroke="#57a7d9" points="452,-874 452,-874 766,-874 766,-874 452,-874"/>
<polygon fill="none" stroke="#57a7d9" stroke-width="2" points="451.5,-813 451.5,-943 764.5,-943 764.5,-813 451.5,-813"/>
</g>
<!-- 7&#45;&gt;8 -->
<g id="edge14" class="edge">
<title>7&#45;&gt;8</title>
<path fill="none" stroke="grey" stroke-width="2" d="M629.27,-979.87C627.49,-971.45 625.66,-962.77 623.86,-954.2"/>
<polygon fill="grey" stroke="grey" stroke-width="2" points="627.24,-953.28 621.75,-944.22 620.39,-954.72 627.24,-953.28"/>
</g>
<!-- 8&#45;&gt;0 -->
<g id="edge3" class="edge">
<title>8&#45;&gt;0</title>
<path fill="none" stroke="grey" stroke-width="2" d="M737.08,-811.69C748.51,-801.23 758.55,-789.37 766,-776 820.53,-678.16 779.7,-383.67 771,-272 770.35,-263.62 769.49,-255 768.5,-246.33"/>
<polygon fill="grey" stroke="grey" stroke-width="2" points="771.95,-245.66 767.28,-236.14 765,-246.49 771.95,-245.66"/>
</g>
<!-- 9 -->
<g id="node10" class="node">
<title>9</title>
<text text-anchor="start" x="448" y="-755.6" font-family="sans" font-weight="bold" font-size="18.00">llm_annotate_detailed_methods</text>
<text text-anchor="start" x="431" y="-731.8" font-family="sans" font-size="10.00"> </text>
<text text-anchor="start" x="434" y="-731.8" font-family="sans" font-weight="bold" font-size="14.00">↪ input</text>
<text text-anchor="start" x="507" y="-731.8" font-family="sans" font-size="10.00"> </text>
<text text-anchor="start" x="431" y="-712" font-family="monospace" font-size="10.00">data/intermediate/computational_papers.jsonl</text>
<text text-anchor="start" x="677" y="-691.8" font-family="sans" font-size="10.00"> </text>
<text text-anchor="start" x="680" y="-691.8" font-family="sans" font-weight="bold" font-size="14.00">output →</text>
<text text-anchor="start" x="747" y="-691.8" font-family="sans" font-size="10.00"> </text>
<text text-anchor="start" x="431" y="-672" font-family="monospace" font-size="10.00">data/intermediate/llm_detailed_annotated_papers.jsonl</text>
<polygon fill="#57d96b" stroke="#57d96b" points="425,-746 425,-746 757,-746 757,-746 425,-746"/>
<polygon fill="#57d96b" stroke="#57d96b" points="425,-706 425,-706 757,-706 757,-706 425,-706"/>
<polygon fill="none" stroke="#57d96b" stroke-width="2" points="424.5,-663 424.5,-775 755.5,-775 755.5,-663 424.5,-663"/>
</g>
<!-- 8&#45;&gt;9 -->
<g id="edge15" class="edge">
<title>8&#45;&gt;9</title>
<path fill="none" stroke="grey" stroke-width="2" d="M600.52,-811.78C599.56,-803.4 598.58,-794.8 597.61,-786.4"/>
<polygon fill="grey" stroke="grey" stroke-width="2" points="601.07,-785.8 596.45,-776.27 594.11,-786.6 601.07,-785.8"/>
</g>
<!-- 12 -->
<g id="node13" class="node">
<title>12</title>
<text text-anchor="start" x="424" y="-605.6" font-family="sans" font-weight="bold" font-size="18.00">prepare_for_manual_review</text>
<text text-anchor="start" x="382" y="-581.8" font-family="sans" font-size="10.00"> </text>
<text text-anchor="start" x="385" y="-581.8" font-family="sans" font-weight="bold" font-size="14.00">↪ input</text>
<text text-anchor="start" x="458" y="-581.8" font-family="sans" font-size="10.00"> </text>
<text text-anchor="start" x="382" y="-562" font-family="monospace" font-size="10.00">data/intermediate/llm_detailed_annotated_papers.jsonl</text>
<text text-anchor="start" x="382" y="-544" font-family="monospace" font-size="10.00">data/intermediate/non_computational_papers.jsonl</text>
<text text-anchor="start" x="640" y="-523.8" font-family="sans" font-size="10.00"> </text>
<text text-anchor="start" x="643" y="-523.8" font-family="sans" font-weight="bold" font-size="14.00">output →</text>
<text text-anchor="start" x="710" y="-523.8" font-family="sans" font-size="10.00"> </text>
<text text-anchor="start" x="382" y="-504" font-family="monospace" font-size="10.00">data/manual_curation/computational_for_review.jsonl</text>
<text text-anchor="start" x="382" y="-486" font-family="monospace" font-size="10.00">data/manual_curation/non_computational_for_review.jsonl</text>
<polygon fill="#57d9bb" stroke="#57d9bb" points="376,-596 376,-596 720,-596 720,-596 376,-596"/>
<polygon fill="#57d9bb" stroke="#57d9bb" points="376,-538 376,-538 720,-538 720,-538 376,-538"/>
<polygon fill="none" stroke="#57d9bb" stroke-width="2" points="375.5,-477 375.5,-625 718.5,-625 718.5,-477 375.5,-477"/>
</g>
<!-- 8&#45;&gt;12 -->
<g id="edge19" class="edge">
<title>8&#45;&gt;12</title>
<path fill="none" stroke="grey" stroke-width="2" d="M450.09,-815.01C436.27,-803.95 424.11,-791.04 415,-776 388.76,-732.66 393.51,-707.88 415,-662 419.65,-652.07 425.69,-642.73 432.61,-634"/>
<polygon fill="grey" stroke="grey" stroke-width="2" points="435.45,-636.07 439.21,-626.17 430.09,-631.56 435.45,-636.07"/>
</g>
<!-- 9&#45;&gt;0 -->
<g id="edge7" class="edge">
<title>9&#45;&gt;0</title>
<path fill="none" stroke="grey" stroke-width="2" d="M699.12,-661.73C710.95,-651.39 721.43,-639.51 729,-626 764.08,-563.4 761.8,-375.05 755.5,-246.41"/>
<polygon fill="grey" stroke="grey" stroke-width="2" points="758.98,-245.91 754.98,-236.1 751.99,-246.26 758.98,-245.91"/>
</g>
<!-- 9&#45;&gt;12 -->
<g id="edge18" class="edge">
<title>9&#45;&gt;12</title>
<path fill="none" stroke="grey" stroke-width="2" d="M575.44,-661.8C573.28,-653.46 571.02,-644.72 568.75,-635.97"/>
<polygon fill="grey" stroke="grey" stroke-width="2" points="572.09,-634.9 566.19,-626.09 565.31,-636.65 572.09,-634.9"/>
</g>
<!-- 10 -->
<g id="node11" class="node">
<title>10</title>
<text text-anchor="start" x="35" y="-576.6" font-family="sans" font-weight="bold" font-size="18.00">create_empty_papers_to_delete_csv</text>
<text text-anchor="start" x="35" y="-555" font-family="sans" font-size="10.00"> &#160;</text>
<text text-anchor="start" x="277" y="-534.8" font-family="sans" font-size="10.00"> </text>
<text text-anchor="start" x="280" y="-534.8" font-family="sans" font-weight="bold" font-size="14.00">output →</text>
<text text-anchor="start" x="347" y="-534.8" font-family="sans" font-size="10.00"> </text>
<text text-anchor="start" x="35" y="-515" font-family="monospace" font-size="10.00">data/manual_curation/papers_to_delete.csv</text>
<polygon fill="#d9a757" stroke="#d9a757" points="29,-567 29,-567 357,-567 357,-567 29,-567"/>
<polygon fill="#d9a757" stroke="#d9a757" points="29,-549 29,-549 357,-549 357,-549 29,-549"/>
<polygon fill="none" stroke="#d9a757" stroke-width="2" points="28.5,-506 28.5,-596 355.5,-596 355.5,-506 28.5,-506"/>
</g>
<!-- 10&#45;&gt;0 -->
<g id="edge5" class="edge">
<title>10&#45;&gt;0</title>
<path fill="none" stroke="grey" stroke-width="2" d="M209.62,-504.88C235.42,-444.2 288.92,-336.49 366,-272 424.74,-222.85 501.29,-188.01 570.35,-164.12"/>
<polygon fill="grey" stroke="grey" stroke-width="2" points="571.7,-167.36 580.04,-160.82 569.45,-160.73 571.7,-167.36"/>
</g>
<!-- 11 -->
<g id="node12" class="node">
<title>11</title>
<text text-anchor="start" x="430" y="-419.6" font-family="sans" font-weight="bold" font-size="18.00">integrate_manual_reviews</text>
<text text-anchor="start" x="382" y="-395.8" font-family="sans" font-size="10.00"> </text>
<text text-anchor="start" x="385" y="-395.8" font-family="sans" font-weight="bold" font-size="14.00">↪ input</text>
<text text-anchor="start" x="458" y="-395.8" font-family="sans" font-size="10.00"> </text>
<text text-anchor="start" x="382" y="-376" font-family="monospace" font-size="10.00">data/manual_curation/computational_for_review.jsonl</text>
<text text-anchor="start" x="382" y="-358" font-family="monospace" font-size="10.00">data/manual_curation/non_computational_for_review.jsonl</text>
<text text-anchor="start" x="382" y="-340" font-family="monospace" font-size="10.00">data/manual_curation/papers_to_delete.csv</text>
<text text-anchor="start" x="640" y="-319.8" font-family="sans" font-size="10.00"> </text>
<text text-anchor="start" x="643" y="-319.8" font-family="sans" font-weight="bold" font-size="14.00">output →</text>
<text text-anchor="start" x="710" y="-319.8" font-family="sans" font-size="10.00"> </text>
<text text-anchor="start" x="382" y="-300" font-family="monospace" font-size="10.00">data/final/master_computational_papers.jsonl</text>
<text text-anchor="start" x="382" y="-282" font-family="monospace" font-size="10.00">data/final/master_non_computational_papers.jsonl</text>
<polygon fill="#6bd957" stroke="#6bd957" points="376,-410 376,-410 720,-410 720,-410 376,-410"/>
<polygon fill="#6bd957" stroke="#6bd957" points="376,-334 376,-334 720,-334 720,-334 376,-334"/>
<polygon fill="none" stroke="#6bd957" stroke-width="2" points="375.5,-273 375.5,-439 718.5,-439 718.5,-273 375.5,-273"/>
</g>
<!-- 10&#45;&gt;11 -->
<g id="edge16" class="edge">
<title>10&#45;&gt;11</title>
<path fill="none" stroke="grey" stroke-width="2" d="M274.78,-504.99C307.69,-487.1 346.74,-465.87 384.85,-445.16"/>
<polygon fill="grey" stroke="grey" stroke-width="2" points="386.87,-448.04 393.99,-440.19 383.53,-441.89 386.87,-448.04"/>
</g>
<!-- 11&#45;&gt;0 -->
<g id="edge6" class="edge">
<title>11&#45;&gt;0</title>
<path fill="none" stroke="grey" stroke-width="2" d="M617.51,-271.8C625.16,-262.78 633.05,-253.46 641,-244.08"/>
<polygon fill="grey" stroke="grey" stroke-width="2" points="643.89,-246.09 647.68,-236.19 638.55,-241.56 643.89,-246.09"/>
</g>
<!-- 12&#45;&gt;11 -->
<g id="edge17" class="edge">
<title>12&#45;&gt;11</title>
<path fill="none" stroke="grey" stroke-width="2" d="M547,-475.93C547,-467.53 547,-458.88 547,-450.27"/>
<polygon fill="grey" stroke="grey" stroke-width="2" points="550.5,-450.2 547,-440.2 543.5,-450.2 550.5,-450.2"/>
</g>
</g>
</svg>
