<?xml version="1.0" encoding="UTF-8" standalone="no"?>
<!DOCTYPE svg PUBLIC "-//W3C//DTD SVG 1.1//EN"
 "http://www.w3.org/Graphics/SVG/1.1/DTD/svg11.dtd">
<!-- Generated by graphviz version 2.43.0 (0)
 -->
<!-- Title: snakemake_dag Pages: 1 -->
<svg width="525pt" height="836pt"
 viewBox="0.00 0.00 525.00 836.00" xmlns="http://www.w3.org/2000/svg" xmlns:xlink="http://www.w3.org/1999/xlink">
<g id="graph0" class="graph" transform="scale(1 1) rotate(0) translate(4 832)">
<title>snakemake_dag</title>
<polygon fill="white" stroke="transparent" points="-4,4 -4,-832 521,-832 521,4 -4,4"/>
<!-- 0 -->
<g id="node1" class="node">
<title>0</title>
<path fill="none" stroke="#d85656" stroke-width="2" d="M418,-36C418,-36 388,-36 388,-36 382,-36 376,-30 376,-24 376,-24 376,-12 376,-12 376,-6 382,0 388,0 388,0 418,0 418,0 424,0 430,-6 430,-12 430,-12 430,-24 430,-24 430,-30 424,-36 418,-36"/>
<text text-anchor="middle" x="403" y="-15.5" font-family="sans" font-size="10.00">all</text>
</g>
<!-- 1 -->
<g id="node2" class="node">
<title>1</title>
<path fill="none" stroke="#8fd856" stroke-width="2" stroke-dasharray="5,2" d="M233.5,-540C233.5,-540 130.5,-540 130.5,-540 124.5,-540 118.5,-534 118.5,-528 118.5,-528 118.5,-516 118.5,-516 118.5,-510 124.5,-504 130.5,-504 130.5,-504 233.5,-504 233.5,-504 239.5,-504 245.5,-510 245.5,-516 245.5,-516 245.5,-528 245.5,-528 245.5,-534 239.5,-540 233.5,-540"/>
<text text-anchor="middle" x="182" y="-519.5" font-family="sans" font-size="10.00">filter_and_score_papers</text>
</g>
<!-- 1&#45;&gt;0 -->
<g id="edge1" class="edge">
<title>1&#45;&gt;0</title>
<path fill="none" stroke="grey" stroke-width="2" d="M126.41,-503.88C72.88,-483.54 0,-443.92 0,-379 0,-379 0,-379 0,-161 0,-83.8 266.39,-38.27 366,-23.94"/>
<polygon fill="grey" stroke="grey" stroke-width="2" points="366.52,-27.4 375.93,-22.54 365.54,-20.47 366.52,-27.4"/>
</g>
<!-- 6 -->
<g id="node7" class="node">
<title>6</title>
<path fill="none" stroke="#b6d856" stroke-width="2" stroke-dasharray="5,2" d="M447.5,-468C447.5,-468 340.5,-468 340.5,-468 334.5,-468 328.5,-462 328.5,-456 328.5,-456 328.5,-444 328.5,-444 328.5,-438 334.5,-432 340.5,-432 340.5,-432 447.5,-432 447.5,-432 453.5,-432 459.5,-438 459.5,-444 459.5,-444 459.5,-456 459.5,-456 459.5,-462 453.5,-468 447.5,-468"/>
<text text-anchor="middle" x="394" y="-447.5" font-family="sans" font-size="10.00">extract_full_text_sections</text>
</g>
<!-- 1&#45;&gt;6 -->
<g id="edge12" class="edge">
<title>1&#45;&gt;6</title>
<path fill="none" stroke="grey" stroke-width="2" d="M233.59,-503.97C263.47,-494.1 301.26,-481.62 332.66,-471.25"/>
<polygon fill="grey" stroke="grey" stroke-width="2" points="333.78,-474.57 342.18,-468.11 331.59,-467.92 333.78,-474.57"/>
</g>
<!-- 2 -->
<g id="node3" class="node">
<title>2</title>
<path fill="none" stroke="#d8cb56" stroke-width="2" stroke-dasharray="5,2" d="M217,-612C217,-612 147,-612 147,-612 141,-612 135,-606 135,-600 135,-600 135,-588 135,-588 135,-582 141,-576 147,-576 147,-576 217,-576 217,-576 223,-576 229,-582 229,-588 229,-588 229,-600 229,-600 229,-606 223,-612 217,-612"/>
<text text-anchor="middle" x="182" y="-591.5" font-family="sans" font-size="10.00">extract_concepts</text>
</g>
<!-- 2&#45;&gt;1 -->
<g id="edge8" class="edge">
<title>2&#45;&gt;1</title>
<path fill="none" stroke="grey" stroke-width="2" d="M182,-575.7C182,-567.98 182,-558.71 182,-550.11"/>
<polygon fill="grey" stroke="grey" stroke-width="2" points="185.5,-550.1 182,-540.1 178.5,-550.1 185.5,-550.1"/>
</g>
<!-- 3 -->
<g id="node4" class="node">
<title>3</title>
<path fill="none" stroke="#d87d56" stroke-width="2" stroke-dasharray="5,2" d="M223,-684C223,-684 141,-684 141,-684 135,-684 129,-678 129,-672 129,-672 129,-660 129,-660 129,-654 135,-648 141,-648 141,-648 223,-648 223,-648 229,-648 235,-654 235,-660 235,-660 235,-672 235,-672 235,-678 229,-684 223,-684"/>
<text text-anchor="middle" x="182" y="-663.5" font-family="sans" font-size="10.00">clean_scraped_data</text>
</g>
<!-- 3&#45;&gt;2 -->
<g id="edge9" class="edge">
<title>3&#45;&gt;2</title>
<path fill="none" stroke="grey" stroke-width="2" d="M182,-647.7C182,-639.98 182,-630.71 182,-622.11"/>
<polygon fill="grey" stroke="grey" stroke-width="2" points="185.5,-622.1 182,-612.1 178.5,-622.1 185.5,-622.1"/>
</g>
<!-- 4 -->
<g id="node5" class="node">
<title>4</title>
<path fill="none" stroke="#567bd8" stroke-width="2" stroke-dasharray="5,2" d="M215,-756C215,-756 149,-756 149,-756 143,-756 137,-750 137,-744 137,-744 137,-732 137,-732 137,-726 143,-720 149,-720 149,-720 215,-720 215,-720 221,-720 227,-726 227,-732 227,-732 227,-744 227,-744 227,-750 221,-756 215,-756"/>
<text text-anchor="middle" x="182" y="-735.5" font-family="sans" font-size="10.00">scrape_pubmed</text>
</g>
<!-- 4&#45;&gt;3 -->
<g id="edge10" class="edge">
<title>4&#45;&gt;3</title>
<path fill="none" stroke="grey" stroke-width="2" d="M182,-719.7C182,-711.98 182,-702.71 182,-694.11"/>
<polygon fill="grey" stroke="grey" stroke-width="2" points="185.5,-694.1 182,-684.1 178.5,-694.1 185.5,-694.1"/>
</g>
<!-- 5 -->
<g id="node6" class="node">
<title>5</title>
<path fill="none" stroke="#56d0d8" stroke-width="2" stroke-dasharray="5,2" d="M217.5,-828C217.5,-828 146.5,-828 146.5,-828 140.5,-828 134.5,-822 134.5,-816 134.5,-816 134.5,-804 134.5,-804 134.5,-798 140.5,-792 146.5,-792 146.5,-792 217.5,-792 217.5,-792 223.5,-792 229.5,-798 229.5,-804 229.5,-804 229.5,-816 229.5,-816 229.5,-822 223.5,-828 217.5,-828"/>
<text text-anchor="middle" x="182" y="-807.5" font-family="sans" font-size="10.00">preprocess_excel</text>
</g>
<!-- 5&#45;&gt;4 -->
<g id="edge11" class="edge">
<title>5&#45;&gt;4</title>
<path fill="none" stroke="grey" stroke-width="2" d="M182,-791.7C182,-783.98 182,-774.71 182,-766.11"/>
<polygon fill="grey" stroke="grey" stroke-width="2" points="185.5,-766.1 182,-756.1 178.5,-766.1 185.5,-766.1"/>
</g>
<!-- 6&#45;&gt;0 -->
<g id="edge2" class="edge">
<title>6&#45;&gt;0</title>
<path fill="none" stroke="grey" stroke-width="2" d="M424.09,-431.89C460.5,-408.7 517,-363.59 517,-307 517,-307 517,-307 517,-161 517,-110 471.73,-66.88 438.24,-41.97"/>
<polygon fill="grey" stroke="grey" stroke-width="2" points="440.17,-39.05 430.02,-36.04 436.08,-44.73 440.17,-39.05"/>
</g>
<!-- 7 -->
<g id="node8" class="node">
<title>7</title>
<path fill="none" stroke="#56d892" stroke-width="2" stroke-dasharray="5,2" d="M431,-396C431,-396 357,-396 357,-396 351,-396 345,-390 345,-384 345,-384 345,-372 345,-372 345,-366 351,-360 357,-360 357,-360 431,-360 431,-360 437,-360 443,-366 443,-372 443,-372 443,-384 443,-384 443,-390 437,-396 431,-396"/>
<text text-anchor="middle" x="394" y="-375.5" font-family="sans" font-size="10.00">llm_broad_classify</text>
</g>
<!-- 6&#45;&gt;7 -->
<g id="edge13" class="edge">
<title>6&#45;&gt;7</title>
<path fill="none" stroke="grey" stroke-width="2" d="M394,-431.7C394,-423.98 394,-414.71 394,-406.11"/>
<polygon fill="grey" stroke="grey" stroke-width="2" points="397.5,-406.1 394,-396.1 390.5,-406.1 397.5,-406.1"/>
</g>
<!-- 7&#45;&gt;0 -->
<g id="edge3" class="edge">
<title>7&#45;&gt;0</title>
<path fill="none" stroke="grey" stroke-width="2" d="M412.86,-359.73C437.91,-334.82 479,-286.14 479,-235 479,-235 479,-235 479,-161 479,-115.64 448.48,-70.75 426.12,-43.95"/>
<polygon fill="grey" stroke="grey" stroke-width="2" points="428.66,-41.53 419.49,-36.23 423.36,-46.09 428.66,-41.53"/>
</g>
<!-- 8 -->
<g id="node9" class="node">
<title>8</title>
<path fill="none" stroke="#56a9d8" stroke-width="2" d="M422,-324C422,-324 274,-324 274,-324 268,-324 262,-318 262,-312 262,-312 262,-300 262,-300 262,-294 268,-288 274,-288 274,-288 422,-288 422,-288 428,-288 434,-294 434,-300 434,-300 434,-312 434,-312 434,-318 428,-324 422,-324"/>
<text text-anchor="middle" x="348" y="-303.5" font-family="sans" font-size="10.00">score_and_split_broad_llm_output</text>
</g>
<!-- 7&#45;&gt;8 -->
<g id="edge14" class="edge">
<title>7&#45;&gt;8</title>
<path fill="none" stroke="grey" stroke-width="2" d="M382.63,-359.7C377.28,-351.56 370.8,-341.69 364.89,-332.7"/>
<polygon fill="grey" stroke="grey" stroke-width="2" points="367.66,-330.54 359.24,-324.1 361.81,-334.38 367.66,-330.54"/>
</g>
<!-- 8&#45;&gt;0 -->
<g id="edge4" class="edge">
<title>8&#45;&gt;0</title>
<path fill="none" stroke="grey" stroke-width="2" d="M385.39,-287.8C399.54,-279.2 414.13,-267.32 422,-252 456.75,-184.37 430.47,-90.95 413.87,-45.7"/>
<polygon fill="grey" stroke="grey" stroke-width="2" points="417.12,-44.4 410.3,-36.29 410.57,-46.89 417.12,-44.4"/>
</g>
<!-- 9 -->
<g id="node10" class="node">
<title>9</title>
<path fill="none" stroke="#56d86b" stroke-width="2" d="M401,-252C401,-252 261,-252 261,-252 255,-252 249,-246 249,-240 249,-240 249,-228 249,-228 249,-222 255,-216 261,-216 261,-216 401,-216 401,-216 407,-216 413,-222 413,-228 413,-228 413,-240 413,-240 413,-246 407,-252 401,-252"/>
<text text-anchor="middle" x="331" y="-231.5" font-family="sans" font-size="10.00">llm_annotate_detailed_methods</text>
</g>
<!-- 8&#45;&gt;9 -->
<g id="edge15" class="edge">
<title>8&#45;&gt;9</title>
<path fill="none" stroke="grey" stroke-width="2" d="M343.8,-287.7C341.9,-279.9 339.62,-270.51 337.52,-261.83"/>
<polygon fill="grey" stroke="grey" stroke-width="2" points="340.92,-261 335.15,-252.1 334.11,-262.65 340.92,-261"/>
</g>
<!-- 12 -->
<g id="node13" class="node">
<title>12</title>
<path fill="none" stroke="#56d8b9" stroke-width="2" d="M363,-180C363,-180 243,-180 243,-180 237,-180 231,-174 231,-168 231,-168 231,-156 231,-156 231,-150 237,-144 243,-144 243,-144 363,-144 363,-144 369,-144 375,-150 375,-156 375,-156 375,-168 375,-168 375,-174 369,-180 363,-180"/>
<text text-anchor="middle" x="303" y="-159.5" font-family="sans" font-size="10.00">prepare_for_manual_review</text>
</g>
<!-- 8&#45;&gt;12 -->
<g id="edge19" class="edge">
<title>8&#45;&gt;12</title>
<path fill="none" stroke="grey" stroke-width="2" d="M284.9,-287.95C267.34,-279.99 250.27,-268.49 240,-252 231.54,-238.42 233.25,-230.51 240,-216 245.43,-204.34 254.82,-194.34 264.72,-186.26"/>
<polygon fill="grey" stroke="grey" stroke-width="2" points="266.85,-189.03 272.7,-180.2 262.62,-183.45 266.85,-189.03"/>
</g>
<!-- 9&#45;&gt;0 -->
<g id="edge5" class="edge">
<title>9&#45;&gt;0</title>
<path fill="none" stroke="grey" stroke-width="2" d="M354.21,-215.92C365.12,-206.57 377.19,-194.05 384,-180 404.85,-137 406.4,-80.21 405.08,-46.84"/>
<polygon fill="grey" stroke="grey" stroke-width="2" points="408.56,-46.28 404.55,-36.48 401.56,-46.64 408.56,-46.28"/>
</g>
<!-- 9&#45;&gt;12 -->
<g id="edge18" class="edge">
<title>9&#45;&gt;12</title>
<path fill="none" stroke="grey" stroke-width="2" d="M324.08,-215.7C320.93,-207.81 317.12,-198.3 313.62,-189.55"/>
<polygon fill="grey" stroke="grey" stroke-width="2" points="316.81,-188.09 309.84,-180.1 310.31,-190.69 316.81,-188.09"/>
</g>
<!-- 10 -->
<g id="node11" class="node">
<title>10</title>
<path fill="none" stroke="#d8a456" stroke-width="2" stroke-dasharray="5,2" d="M200.5,-180C200.5,-180 39.5,-180 39.5,-180 33.5,-180 27.5,-174 27.5,-168 27.5,-168 27.5,-156 27.5,-156 27.5,-150 33.5,-144 39.5,-144 39.5,-144 200.5,-144 200.5,-144 206.5,-144 212.5,-150 212.5,-156 212.5,-156 212.5,-168 212.5,-168 212.5,-174 206.5,-180 200.5,-180"/>
<text text-anchor="middle" x="120" y="-159.5" font-family="sans" font-size="10.00">create_empty_papers_to_delete_csv</text>
</g>
<!-- 10&#45;&gt;0 -->
<g id="edge6" class="edge">
<title>10&#45;&gt;0</title>
<path fill="none" stroke="grey" stroke-width="2" d="M136.02,-143.83C155.51,-123.89 190.26,-91.28 226,-72 271.16,-47.64 328.99,-33.03 366.03,-25.5"/>
<polygon fill="grey" stroke="grey" stroke-width="2" points="366.75,-28.92 375.89,-23.56 365.4,-22.05 366.75,-28.92"/>
</g>
<!-- 11 -->
<g id="node12" class="node">
<title>11</title>
<path fill="none" stroke="#68d856" stroke-width="2" d="M359,-108C359,-108 247,-108 247,-108 241,-108 235,-102 235,-96 235,-96 235,-84 235,-84 235,-78 241,-72 247,-72 247,-72 359,-72 359,-72 365,-72 371,-78 371,-84 371,-84 371,-96 371,-96 371,-102 365,-108 359,-108"/>
<text text-anchor="middle" x="303" y="-87.5" font-family="sans" font-size="10.00">integrate_manual_reviews</text>
</g>
<!-- 10&#45;&gt;11 -->
<g id="edge17" class="edge">
<title>10&#45;&gt;11</title>
<path fill="none" stroke="grey" stroke-width="2" d="M164.77,-143.88C190.12,-134.18 222.01,-121.98 248.77,-111.74"/>
<polygon fill="grey" stroke="grey" stroke-width="2" points="250.29,-114.91 258.38,-108.07 247.79,-108.37 250.29,-114.91"/>
</g>
<!-- 11&#45;&gt;0 -->
<g id="edge7" class="edge">
<title>11&#45;&gt;0</title>
<path fill="none" stroke="grey" stroke-width="2" d="M327.46,-71.88C340.3,-62.89 356.2,-51.76 370.09,-42.03"/>
<polygon fill="grey" stroke="grey" stroke-width="2" points="372.26,-44.79 378.44,-36.19 368.24,-39.06 372.26,-44.79"/>
</g>
<!-- 12&#45;&gt;11 -->
<g id="edge16" class="edge">
<title>12&#45;&gt;11</title>
<path fill="none" stroke="grey" stroke-width="2" d="M303,-143.7C303,-135.98 303,-126.71 303,-118.11"/>
<polygon fill="grey" stroke="grey" stroke-width="2" points="306.5,-118.1 303,-108.1 299.5,-118.1 306.5,-118.1"/>
</g>
</g>
</svg>
